<svg width="4246" height="528" xmlns="http://www.w3.org/2000/svg" xmlns:xlink="http://www.w3.org/1999/xlink" overflow="hidden"><defs><clipPath id="clip0"><rect x="26" y="803" width="4246" height="528"/></clipPath></defs><g clip-path="url(#clip0)" transform="translate(-26 -803)"><path d="M3908 1068.11C3894.36 1082.62 3882.14 1093.1 3871.33 1099.54L3849.16 1112.84C3847.73 1113.66 3846.36 1114.65 3845.03 1115.82 3843.7 1116.98 3842.53 1118.28 3841.5 1119.69 3841.49 1119.9 3841.42 1120.19 3841.3 1120.55 3841.19 1120.91 3841.12 1121.3 3841.1 1121.71 3841.03 1123.66 3842.38 1125.81 3845.13 1128.16L3870.12 1140.25 3912.43 1158.38C3916.93 1160.46 3920.43 1161.54 3922.91 1161.61 3927.81 1161.61 3930.1 1157.58 3929.76 1149.52 3931.04 1139.37 3931.71 1129.43 3931.78 1119.69 3931.84 1111.23 3931.31 1102.77 3930.16 1094.31 3928.96 1088.19 3926.54 1083.09 3922.91 1078.99 3920.3 1076.8 3917.76 1074.84 3915.3 1073.1 3912.84 1071.36 3910.41 1069.7 3908 1068.11ZM2911 1068.11C2897.36 1082.62 2885.14 1093.1 2874.33 1099.54L2852.16 1112.84C2850.73 1113.66 2849.36 1114.65 2848.03 1115.82 2846.7 1116.98 2845.53 1118.28 2844.5 1119.69 2844.49 1119.9 2844.42 1120.19 2844.3 1120.55 2844.19 1120.91 2844.12 1121.3 2844.1 1121.71 2844.03 1123.66 2845.38 1125.81 2848.13 1128.16L2873.12 1140.25 2915.43 1158.38C2919.93 1160.46 2923.43 1161.54 2925.91 1161.61 2930.81 1161.61 2933.1 1157.58 2932.76 1149.52 2934.04 1139.37 2934.71 1129.43 2934.78 1119.69 2934.84 1111.23 2934.31 1102.77 2933.16 1094.31 2931.96 1088.19 2929.54 1083.09 2925.91 1078.99 2923.3 1076.8 2920.76 1074.84 2918.3 1073.1 2915.84 1071.36 2913.41 1069.7 2911 1068.11ZM2228.93 1050.81C2227.92 1050.79 2226.91 1050.82 2225.9 1050.91 2224.89 1050.99 2223.88 1051.23 2222.88 1051.61L2194.24 1065.31C2188.79 1067.93 2184.67 1070.86 2181.89 1074.08 2179.11 1077.3 2177.71 1080.83 2177.7 1084.66L2176.09 1120.93C2176.08 1122.54 2176.01 1124.05 2175.89 1125.46 2175.77 1126.87 2175.71 1128.18 2175.69 1129.39 2175.69 1135.37 2176.9 1140.34 2179.32 1144.3 2181.14 1146.71 2183.95 1149.35 2187.74 1152.21 2191.53 1155.07 2196.25 1158.21 2201.9 1161.63 2205.91 1163.86 2209.59 1165.55 2212.94 1166.72 2216.3 1167.89 2219.47 1168.47 2222.47 1168.48 2227.31 1168.48 2231.35 1166.87 2234.57 1163.65 2239.01 1157.13 2240.62 1145.58 2239.41 1128.99L2238.2 1103.2 2240.22 1063.3C2239.08 1058.46 2237.33 1054.84 2234.98 1052.42 2233.36 1051.28 2231.35 1050.74 2228.93 1050.81ZM1402.93 1050.81C1401.92 1050.79 1400.91 1050.82 1399.9 1050.91 1398.89 1050.99 1397.88 1051.23 1396.88 1051.61L1368.24 1065.31C1362.79 1067.93 1358.67 1070.86 1355.89 1074.08 1353.11 1077.3 1351.71 1080.83 1351.7 1084.66L1350.09 1120.93C1350.08 1122.54 1350.01 1124.05 1349.89 1125.46 1349.77 1126.87 1349.71 1128.18 1349.69 1129.39 1349.69 1135.37 1350.9 1140.34 1353.32 1144.3 1355.14 1146.71 1357.95 1149.35 1361.74 1152.21 1365.53 1155.07 1370.25 1158.21 1375.9 1161.63 1379.91 1163.86 1383.59 1165.55 1386.94 1166.72 1390.3 1167.89 1393.47 1168.47 1396.47 1168.48 1401.31 1168.48 1405.35 1166.87 1408.57 1163.65 1413.01 1157.13 1414.62 1145.58 1413.41 1128.99L1412.2 1103.2 1414.22 1063.3C1413.08 1058.46 1411.33 1054.84 1408.98 1052.42 1407.36 1051.28 1405.35 1050.74 1402.93 1050.81ZM3761.02 1007.87C3757.48 1007.75 3753.98 1008.09 3750.54 1008.88 3747.11 1010.28 3744.3 1012.31 3742.13 1014.97 3739.95 1017.63 3738.46 1020.97 3737.64 1024.99L3738.85 1061.66 3738.45 1090.67C3738.27 1100.35 3738.33 1108.49 3738.65 1115.1 3738.97 1121.71 3739.44 1126.73 3740.06 1130.16 3742.95 1143.79 3750.07 1153.6 3761.42 1159.57 3766.21 1161.64 3772.92 1162.68 3781.56 1162.71L3786.34 1162.55 3790.99 1158C3795.26 1153.81 3799.94 1149.18 3805.03 1144.13 3815.23 1134.01 3826.98 1122.1 3840.3 1108.41 3841.91 1106.8 3842.71 1105.19 3842.71 1103.57 3842.71 1102.19 3842.21 1100.93 3841.2 1099.8 3840.19 1098.66 3838.68 1097.5 3836.67 1096.32L3814.5 1090.28C3811.9 1089.06 3809.85 1087.46 3808.36 1085.49 3806.86 1083.52 3805.82 1081.22 3805.23 1078.59 3805.57 1074.16 3807.32 1066.5 3810.47 1055.62 3811.69 1051.57 3812.58 1047.47 3813.14 1043.33 3813.71 1039.18 3813.89 1035.08 3813.7 1031.03L3809.98 1012.45 3806.43 1013.32C3803.56 1013.91 3800.51 1014.31 3797.29 1014.52 3793.33 1014.99 3784.73 1013.24 3771.5 1009.28 3768.05 1008.46 3764.56 1007.99 3761.02 1007.87ZM3554.59 997.157C3549.76 997.132 3545.71 997.988 3542.44 999.726 3539.17 1001.46 3536.64 1004.23 3534.83 1008.04L3527.17 1076.14 3527.97 1126.12C3528.14 1132.98 3528.91 1138.69 3530.29 1143.24 3531.67 1147.79 3533.86 1151.09 3536.85 1153.12 3540.87 1155.31 3545.73 1156.87 3551.42 1157.8 3557.11 1158.73 3563.68 1159.19 3571.13 1159.16 3571.72 1159.18 3572.26 1159.25 3572.75 1159.36 3573.23 1159.48 3573.77 1159.55 3574.36 1159.57 3577.37 1159.56 3579.81 1158.57 3581.67 1156.59 3583.53 1154.62 3584.85 1151.72 3585.65 1147.88L3585.65 1102.74 3587.67 1069.7C3590.55 1054.38 3591.63 1042.29 3590.89 1033.43 3590.49 1023.02 3586.86 1014.42 3580 1007.63 3576.17 1004.83 3572.14 1002.58 3567.9 1000.88 3563.67 999.189 3559.23 997.946 3554.59 997.157ZM2184.56 995.595C2180.75 995.814 2177.29 996.485 2174.18 997.61 2171.08 998.735 2168.22 1000.21 2165.62 1002.04 2163.22 1004.48 2161.49 1007.16 2160.44 1010.1 2159.39 1013.04 2158.97 1016.13 2159.18 1019.37 2160.37 1023.41 2162.13 1027.12 2164.47 1030.51 2166.81 1033.89 2169.88 1036.89 2173.68 1039.52 2177.49 1042.15 2181.45 1044.05 2185.57 1045.21 2189.69 1046.38 2194.06 1046.77 2198.68 1046.37 2204.53 1045.77 2210.16 1044.36 2215.57 1042.14 2220.97 1039.93 2226.09 1036.9 2230.94 1033.07 2234.57 1029.38 2236.59 1025.48 2236.99 1021.39 2236.58 1019.57 2235.79 1017.77 2234.62 1016 2233.46 1014.23 2231.96 1012.53 2230.14 1010.91 2223.07 1005.89 2215.73 1002.13 2208.1 999.625 2200.48 997.123 2192.64 995.78 2184.56 995.595ZM1358.56 995.595C1354.75 995.814 1351.29 996.485 1348.18 997.61 1345.08 998.735 1342.22 1000.21 1339.62 1002.04 1337.22 1004.48 1335.49 1007.16 1334.44 1010.1 1333.39 1013.04 1332.97 1016.13 1333.18 1019.37 1334.37 1023.41 1336.13 1027.12 1338.47 1030.51 1340.81 1033.89 1343.88 1036.89 1347.68 1039.52 1351.49 1042.15 1355.45 1044.05 1359.57 1045.21 1363.69 1046.38 1368.06 1046.77 1372.68 1046.37 1378.53 1045.77 1384.16 1044.36 1389.57 1042.14 1394.97 1039.93 1400.09 1036.9 1404.94 1033.07 1408.57 1029.38 1410.59 1025.48 1410.99 1021.39 1410.58 1019.57 1409.79 1017.77 1408.62 1016 1407.46 1014.23 1405.96 1012.53 1404.14 1010.91 1397.07 1005.89 1389.73 1002.13 1382.1 999.625 1374.48 997.123 1366.64 995.78 1358.56 995.595ZM995.585 986.326C995.988 992.035 996.391 1007.22 996.794 1031.87 997.196 1036.7 998.003 1040.73 999.214 1043.96 999.616 1044.29 1000.42 1044.43 1001.63 1044.36 1002.26 1044.36 1003.01 1044.26 1003.9 1044.06 1004.78 1043.85 1005.63 1043.55 1006.47 1043.15L1031.05 1023C1032.68 1020.78 1033.55 1018.77 1033.67 1016.95 1033.79 1015.14 1033.05 1013.53 1031.45 1012.12 1027.84 1008.89 1024.38 1006.07 1021.07 1003.66 1017.77 1001.24 1014.51 999.222 1011.3 997.61 1008.66 996.41 1005.99 994.882 1003.29 993.026 1000.6 991.171 998.028 988.937 995.585 986.326ZM506.585 986.326C506.988 992.035 507.391 1007.22 507.793 1031.87 508.196 1036.7 509.003 1040.73 510.213 1043.96 510.616 1044.29 511.421 1044.43 512.63 1044.36 513.259 1044.36 514.015 1044.26 514.896 1044.06 515.778 1043.85 516.634 1043.55 517.466 1043.15L542.049 1023C543.677 1020.78 544.551 1018.77 544.668 1016.95 544.786 1015.14 544.047 1013.53 542.451 1012.12 538.841 1008.89 535.382 1006.07 532.074 1003.66 528.766 1001.24 525.509 999.222 522.302 997.61 519.657 996.41 516.987 994.882 514.292 993.026 511.597 991.171 509.028 988.937 506.585 986.326ZM3874.55 984.286C3868.17 984.286 3865.21 989.525 3865.68 1000 3865.35 1003.23 3865.21 1006.45 3865.28 1009.68 3865.26 1014.91 3865.7 1020.15 3866.59 1025.39 3867.48 1030.63 3868.93 1035.87 3870.92 1041.11 3874.94 1046.16 3878.4 1049.97 3881.3 1052.54 3884.21 1055.12 3886.66 1056.41 3888.66 1056.42 3889.86 1056.49 3890.67 1056.36 3891.07 1056.02 3908.07 1054.88 3924.05 1045.07 3939.03 1026.6 3939.84 1021.36 3935 1013.71 3924.52 1003.63 3915.66 996.712 3903.16 991.607 3887.04 988.316 3884.61 986.914 3882.32 985.89 3880.19 985.243 3878.06 984.597 3876.18 984.278 3874.55 984.286ZM2877.55 984.286C2871.17 984.286 2868.21 989.525 2868.68 1000 2868.35 1003.23 2868.21 1006.45 2868.28 1009.68 2868.26 1014.91 2868.7 1020.15 2869.59 1025.39 2870.48 1030.63 2871.93 1035.87 2873.92 1041.11 2877.94 1046.16 2881.4 1049.97 2884.3 1052.54 2887.21 1055.12 2889.66 1056.41 2891.66 1056.42 2892.86 1056.49 2893.67 1056.36 2894.07 1056.02 2911.07 1054.88 2927.05 1045.07 2942.03 1026.6 2942.84 1021.36 2938 1013.71 2927.52 1003.63 2918.66 996.712 2906.16 991.607 2890.04 988.316 2887.61 986.914 2885.32 985.89 2883.19 985.243 2881.06 984.597 2879.18 984.278 2877.55 984.286ZM684.017 970.999C683.244 970.991 682.572 971.008 682.001 971.05 681.429 971.091 680.757 971.209 679.984 971.402 676.959 972.636 674.338 974.6 672.12 977.295 669.901 979.99 668.086 983.264 666.675 987.117L666.271 1050.78 662.245 1082.61C661.054 1091.49 660.417 1099.63 660.333 1107.04 660.249 1114.45 660.618 1121.09 661.44 1126.94 662.438 1130.95 664.369 1134.51 667.232 1137.61 670.096 1140.72 673.943 1143.47 678.774 1145.87L706.603 1159.17C710.628 1161 714.173 1161.77 717.24 1161.49 720.307 1161.2 722.945 1159.76 725.155 1157.16 726.979 1153.54 728.373 1149.49 729.34 1145.02 730.306 1140.54 730.793 1135.59 730.802 1130.16L732.01 1072.14 731.608 1056.02C731.792 1049.77 731.826 1043.13 731.708 1036.12 731.591 1029.11 731.423 1021.78 731.205 1014.11 730.415 1012.12 728.163 1008.96 724.449 1004.64 720.736 1000.33 715.459 994.756 708.619 987.923L694.503 973.417C692.705 972.611 690.958 972.007 689.26 971.604 687.563 971.201 685.815 970.999 684.017 970.999ZM2226.51 947.235C2229.34 947.621 2232.75 948.663 2236.74 950.359 2240.73 952.055 2245.24 954.506 2250.28 957.713 2252.92 959.334 2256 960.929 2259.54 962.499 2263.08 964.069 2266.97 965.563 2271.22 966.982 2282.16 970.676 2291.69 974.975 2299.81 979.878 2300.64 980.667 2300.49 984.127 2299.36 990.255 2298.23 996.384 2295.96 1005.28 2292.56 1016.95L2292.16 1086.67C2292.16 1084.84 2292.26 1086.19 2292.46 1090.7 2292.66 1095.22 2292.96 1103.01 2293.36 1114.08L2294.57 1139.87C2294.98 1150.68 2298.2 1159.28 2304.25 1165.66L2309.48 1169.69C2313.51 1170.43 2317.14 1169.36 2320.37 1166.47 2321.64 1166.13 2322.72 1166 2323.59 1166.06 2324.73 1166.13 2325.27 1166.4 2325.2 1166.87 2325.27 1168.48 2322.72 1171.71 2317.54 1176.54L2309.08 1186.62C2308.06 1187.83 2306.68 1189.44 2304.95 1191.45 2303.22 1193.47 2301.24 1195.89 2299.01 1198.71L2289.74 1207.17C2286.12 1210.86 2282.09 1212.75 2277.66 1212.81 2273.17 1212.75 2268.47 1210.86 2263.57 1207.17L2242.23 1185.01C2237.87 1182.25 2233.3 1180.91 2228.52 1180.98 2227.33 1180.98 2226.19 1181.08 2225.09 1181.28 2224 1181.48 2222.86 1181.78 2221.67 1182.18L2185.77 1199.51 2170.86 1213.62C2168.65 1215.85 2166.52 1217.23 2164.47 1217.75 2162.41 1218.27 2160.38 1217.83 2158.38 1216.44L2158.38 1216.44C2157.56 1215.22 2156.28 1213.02 2154.55 1209.84 2152.83 1206.66 2150.75 1202.54 2148.31 1197.5 2145.49 1192.66 2142.27 1188.63 2138.65 1185.41L2124.96 1178.15C2120.46 1175.27 2118.18 1171.37 2118.11 1166.47 2118.18 1162.84 2119.25 1158.81 2121.33 1154.38 2124.56 1147.06 2126.17 1139.13 2126.17 1130.6 2126.1 1122.2 2124.62 1113.2 2121.73 1103.6 2120.46 1099.17 2119.79 1095.14 2119.72 1091.51 2119.72 1088.71 2120.23 1086.25 2121.23 1084.15 2122.24 1082.06 2123.75 1080.21 2125.76 1078.61 2127.37 1077.98 2130.9 1076.82 2136.33 1075.14 2141.77 1073.45 2149.11 1071.38 2158.38 1068.94 2160.2 1068.34 2161.98 1067.63 2163.71 1066.83 2165.44 1066.02 2167.02 1065.11 2168.44 1064.11 2169.58 1062.96 2170.12 1061.62 2170.05 1060.08 2169.99 1058.46 2169.31 1056.85 2168.04 1055.24L2157.17 1043.96C2155.33 1042.12 2153.67 1040.04 2152.18 1037.71 2150.7 1035.37 2149.54 1032.89 2148.71 1030.25 2148.38 1028.31 2148.24 1026.16 2148.31 1023.81 2148.28 1020.98 2148.54 1018.06 2149.06 1015.04 2149.59 1012.02 2150.55 1008.89 2151.93 1005.67 2155.96 997.61 2161.6 990.759 2168.84 985.117L2185.77 974.639 2201.9 963.758 2212.79 952.877C2215.03 951.081 2217.31 949.737 2219.65 948.847 2221.99 947.957 2224.27 947.42 2226.51 947.235ZM1400.51 947.235C1403.34 947.621 1406.75 948.663 1410.74 950.359 1414.73 952.055 1419.24 954.506 1424.28 957.713 1426.92 959.334 1430 960.929 1433.54 962.499 1437.08 964.069 1440.97 965.563 1445.22 966.982 1456.16 970.676 1465.69 974.975 1473.81 979.878 1474.64 980.667 1474.49 984.127 1473.36 990.255 1472.23 996.384 1469.96 1005.28 1466.56 1016.95L1466.16 1086.67C1466.16 1084.84 1466.26 1086.19 1466.46 1090.7 1466.66 1095.22 1466.96 1103.01 1467.36 1114.08L1468.57 1139.87C1468.98 1150.68 1472.2 1159.28 1478.25 1165.66L1483.48 1169.69C1487.51 1170.43 1491.14 1169.36 1494.37 1166.47 1495.64 1166.13 1496.72 1166 1497.59 1166.06 1498.73 1166.13 1499.27 1166.4 1499.2 1166.87 1499.27 1168.48 1496.72 1171.71 1491.54 1176.54L1483.08 1186.62C1482.06 1187.83 1480.68 1189.44 1478.95 1191.45 1477.22 1193.47 1475.24 1195.89 1473.01 1198.71L1463.74 1207.17C1460.12 1210.86 1456.09 1212.75 1451.66 1212.81 1447.17 1212.75 1442.47 1210.86 1437.57 1207.17L1416.23 1185.01C1411.87 1182.25 1407.3 1180.91 1402.52 1180.98 1401.33 1180.98 1400.19 1181.08 1399.09 1181.28 1398 1181.48 1396.86 1181.78 1395.67 1182.18L1359.77 1199.51 1344.86 1213.62C1342.65 1215.85 1340.52 1217.23 1338.47 1217.75 1336.41 1218.27 1334.38 1217.83 1332.38 1216.44L1332.38 1216.44C1331.56 1215.22 1330.28 1213.02 1328.55 1209.84 1326.83 1206.66 1324.75 1202.54 1322.31 1197.5 1319.49 1192.66 1316.27 1188.63 1312.65 1185.41L1298.96 1178.15C1294.46 1175.27 1292.18 1171.37 1292.11 1166.47 1292.18 1162.84 1293.25 1158.81 1295.33 1154.38 1298.56 1147.06 1300.17 1139.13 1300.17 1130.6 1300.1 1122.2 1298.62 1113.2 1295.73 1103.6 1294.46 1099.17 1293.79 1095.14 1293.72 1091.51 1293.72 1088.71 1294.23 1086.25 1295.23 1084.15 1296.24 1082.06 1297.75 1080.21 1299.76 1078.61 1301.37 1077.98 1304.9 1076.82 1310.33 1075.14 1315.77 1073.45 1323.11 1071.38 1332.38 1068.94 1334.2 1068.34 1335.98 1067.63 1337.71 1066.83 1339.44 1066.02 1341.02 1065.11 1342.44 1064.11 1343.58 1062.96 1344.12 1061.62 1344.05 1060.08 1343.98 1058.46 1343.31 1056.85 1342.04 1055.24L1331.17 1043.96C1329.33 1042.12 1327.67 1040.04 1326.18 1037.71 1324.7 1035.37 1323.54 1032.89 1322.71 1030.25 1322.38 1028.31 1322.24 1026.16 1322.31 1023.81 1322.28 1020.98 1322.54 1018.06 1323.06 1015.04 1323.59 1012.02 1324.55 1008.89 1325.93 1005.67 1329.96 997.61 1335.6 990.759 1342.84 985.117L1359.77 974.639 1375.9 963.758 1386.79 952.877C1389.03 951.081 1391.31 949.737 1393.65 948.847 1395.99 947.957 1398.27 947.42 1400.51 947.235ZM2377.96 943.961C2380.22 943.843 2382.35 944.784 2384.35 946.782 2388.16 951.215 2391.82 954.943 2395.32 957.965 2398.83 960.988 2402.28 963.305 2405.69 964.917 2411.74 971.365 2417.38 974.589 2422.63 974.589 2424.64 974.589 2426.57 974.085 2428.43 973.078 2430.28 972.07 2432.11 970.559 2433.92 968.544 2440.78 966.193 2448.44 960.82 2456.91 952.424 2459.15 949.997 2461.53 948.302 2464.07 947.336 2466.61 946.37 2469.19 946.186 2471.83 946.782 2474.04 947.403 2476.66 948.579 2479.68 950.308 2482.7 952.038 2486.12 954.221 2489.95 956.857 2494.44 960.148 2499.94 962.835 2506.45 964.917L2528.6 972.574C2530.61 973.405 2532.34 974.362 2533.79 975.445 2535.25 976.528 2536.47 977.586 2537.47 978.619 2537.47 979.005 2537.47 979.341 2537.47 979.626 2537.47 979.912 2537.47 980.248 2537.47 980.634 2537.5 981.65 2537.24 982.842 2536.71 984.211 2536.19 985.579 2535.23 987.073 2533.84 988.694 2526.12 995.612 2522.22 1005.96 2522.16 1019.72 2522.09 1021.74 2522.22 1023.75 2522.56 1025.77L2519.74 1049.14 2518.53 1064.46C2519.13 1069.68 2519.54 1074.45 2519.74 1078.76 2519.94 1083.08 2519.94 1087.04 2519.74 1090.65L2518.13 1136.19C2518.87 1147.88 2522.22 1156.74 2528.2 1162.79 2535.12 1168.43 2543.45 1171.66 2553.19 1172.46 2555.2 1171.66 2556.81 1171.25 2558.02 1171.25 2562.12 1171.25 2558.76 1174.88 2547.95 1182.13 2542.71 1185.43 2534.65 1190.53 2523.77 1197.45L2510.08 1207.12C2506.52 1210.34 2503.16 1211.96 2500.01 1211.96 2496.45 1211.89 2493.1 1210.01 2489.95 1206.31 2485.52 1200.67 2475.45 1193.82 2459.73 1185.76 2457.33 1184.57 2455.58 1183.23 2454.49 1181.73 2453.4 1180.24 2452.86 1178.49 2452.88 1176.49 2452.87 1175.69 2452.99 1174.78 2453.23 1173.77 2453.47 1172.76 2453.89 1171.66 2454.49 1170.45 2456.92 1166.21 2459.02 1162.09 2460.79 1158.1 2462.57 1154.12 2463.96 1150.31 2464.98 1146.67L2469.01 1115.64 2470.22 1083.4 2470.22 1053.17 2469.82 1021.34C2469.4 1016.72 2468.31 1012.76 2466.54 1009.45 2464.77 1006.14 2462.36 1003.39 2459.33 1001.19L2436.34 990.709C2434.53 989.5 2432.8 988.593 2431.15 987.989 2429.49 987.384 2427.86 987.082 2426.26 987.082 2421.01 987.015 2416.58 990.776 2412.95 998.366 2410.53 1004.75 2409.32 1012.94 2409.32 1022.95 2409.3 1025.17 2409.34 1027.57 2409.42 1030.15 2409.5 1032.73 2409.74 1035.43 2410.13 1038.26L2408.92 1053.98 2406.5 1083.4 2406.9 1114.03 2403.68 1141.43C2404.06 1144.65 2404.7 1147.59 2405.59 1150.25 2406.48 1152.91 2407.72 1155.34 2409.32 1157.55 2410.55 1158.76 2412.02 1159.97 2413.76 1161.18 2415.49 1162.39 2417.37 1163.6 2419.4 1164.8 2422.82 1166.64 2425.36 1168.61 2427.01 1170.7 2428.67 1172.79 2429.49 1174.85 2429.48 1176.89 2428.67 1180.32 2427.07 1183.34 2424.7 1185.96 2422.32 1188.58 2419.21 1190.8 2415.37 1192.61 2411.4 1194.56 2406.83 1197.11 2401.66 1200.27 2395.29 1206.31 2389.92 1210.34 2385.56 1212.36 2383.21 1213.16 2381.06 1213.57 2379.12 1213.57 2376.3 1213.57 2373.48 1212.76 2370.66 1211.15 2370.66 1211.13 2370.06 1210.36 2368.85 1208.83 2367.64 1207.3 2365.83 1205.12 2363.42 1202.28L2356.17 1193.01 2342.87 1184.15C2340.06 1182.32 2338.13 1180.24 2337.08 1177.9 2336.03 1175.57 2335.81 1173.08 2336.42 1170.45 2337.24 1168.87 2338.53 1167.19 2340.3 1165.41 2342.07 1163.63 2344.27 1161.55 2346.9 1159.16 2349.53 1156.96 2351.63 1154.51 2353.2 1151.81 2354.77 1149.1 2355.76 1146.05 2356.17 1142.64L2356.57 1111.61C2356.64 1103.88 2357.31 1092.74 2358.59 1078.16 2359.58 1069.69 2360.11 1061.34 2360.2 1053.12 2360.28 1044.9 2360.01 1036.86 2359.39 1028.99 2358.8 1021.73 2357.77 1015.9 2356.32 1011.51 2354.87 1007.12 2352.94 1004.22 2350.53 1002.8L2326.75 996.754C2325.36 996.141 2324.12 995.553 2323.02 994.991 2321.93 994.428 2320.89 993.941 2319.9 993.53 2319.43 992.254 2319.16 991.179 2319.09 990.306 2319.09 989.03 2319.5 987.552 2320.3 985.873 2323.19 982.179 2328.7 977.88 2336.83 972.977L2351.74 963.305 2370.66 947.185C2373.27 945.153 2375.71 944.078 2377.96 943.961ZM869.451 943.726C871.073 943.682 872.64 944.176 874.149 945.208L899.122 963.744C901.541 965.691 902.75 968.243 902.75 971.4 902.682 975.429 900.802 980.265 897.107 985.906 894.077 991.119 891.776 996.81 890.206 1002.98 888.636 1009.15 887.847 1015.95 887.839 1023.38 888.015 1024.19 887.964 1027.21 887.687 1032.45 887.41 1037.68 887.058 1045.14 886.63 1054.81L885.824 1076.97 883.006 1103.97C881.798 1120.09 883.006 1135 886.63 1148.7 890.256 1155.55 896.302 1160.78 904.765 1164.41 908.862 1165.95 916.384 1167.3 927.333 1168.44L934.183 1169.65 935.795 1170.05C935.98 1170.45 936.014 1170.86 935.896 1171.26 935.779 1171.66 935.611 1172.07 935.393 1172.47L916.049 1187.38 898.719 1199.87C896.52 1201.88 894.37 1204.3 892.271 1207.12 890.173 1209.94 888.023 1213.17 885.824 1216.79 884.8 1218.81 883.828 1220.52 882.905 1221.93 881.983 1223.34 881.211 1224.45 880.59 1225.25 880.187 1225.27 879.786 1225.34 879.386 1225.46 878.987 1225.57 878.593 1225.64 878.204 1225.66 876.66 1225.66 875.318 1225.25 874.176 1224.45L860.462 1209.54C854.021 1202.76 848.788 1198.19 844.762 1195.84L822.2 1188.18C818.766 1186.8 816.365 1185.24 814.996 1183.5 813.628 1181.76 813.342 1179.7 814.14 1177.3L828.245 1160.78C829.639 1158.58 830.78 1155.94 831.67 1152.88 832.56 1149.81 833.299 1146.27 833.887 1142.25L838.32 1102.76 840.737 1051.99C840.351 1049.78 840.116 1047.65 840.032 1045.59 839.948 1043.54 839.915 1041.5 839.931 1039.5 839.931 1036.49 840.032 1033.64 840.233 1030.93 840.435 1028.23 840.737 1025.58 841.139 1022.98 840.535 1015.91 838.722 1010 835.7 1005.25 832.678 1000.5 828.446 997.004 823.006 994.771 821.176 992.773 819.799 990.724 818.875 988.626 817.952 986.527 817.582 984.277 817.767 981.876 818.59 979.45 820.067 977.15 822.2 974.976 824.332 972.802 827.019 970.804 830.26 968.982 836.899 966.136 842.755 962.963 847.83 959.463 852.906 955.962 857.25 952.285 860.865 948.432 863.884 945.368 866.746 943.799 869.451 943.726ZM532.779 943.608C540.437 944.414 547.691 947.235 554.542 952.071L571.87 964.161C575.313 966.378 578.503 968.796 581.442 971.415 584.38 974.035 586.966 976.856 589.2 979.878 590.392 981.507 591.231 983.186 591.718 984.916 592.205 986.645 592.44 988.324 592.424 989.953 592.424 991.381 592.222 992.858 591.819 994.386 591.416 995.914 590.812 997.392 590.005 998.819 587.814 1001.63 585.346 1004.37 582.6 1007.03 579.855 1009.69 576.681 1012.33 573.08 1014.94L556.154 1027.84 538.422 1041.94C527.138 1049.19 520.286 1054.03 517.869 1056.45 513.772 1063.3 511.086 1071.36 509.811 1080.63 509.811 1082.58 510.616 1089.56 512.227 1101.58L513.435 1136.65C514.25 1139.29 516.651 1142.46 520.639 1146.17 524.627 1149.87 530.152 1153.95 537.213 1158.41 542.636 1162.01 548.413 1164.48 554.542 1165.81 560.67 1167.15 567.253 1167.5 574.289 1166.87L581.542 1166.06 583.557 1166.47C583.574 1166.67 583.641 1166.87 583.759 1167.07 583.877 1167.27 583.944 1167.47 583.961 1167.68 583.893 1168.01 583.625 1168.55 583.154 1169.29L565.422 1186.62 551.318 1199.51 534.795 1213.62C529.488 1218.39 524.384 1219.33 519.48 1216.44L499.745 1201.93C496.524 1199.49 493.505 1197.32 490.686 1195.43 487.868 1193.54 485.251 1192.08 482.835 1191.05L456.663 1182.99C453.036 1181.04 450.618 1179.3 449.409 1177.75 449.4 1176.56 449.72 1175.01 450.366 1173.12 451.012 1171.22 452.037 1168.87 453.439 1166.06 457.066 1158 459.08 1145.11 459.483 1127.38 459.5 1119.32 459.466 1112.67 459.382 1107.43 459.298 1102.19 459.063 1098.36 458.677 1095.94 458.258 1090.29 457.989 1084.77 457.872 1079.37 457.754 1073.97 457.889 1068.75 458.275 1063.7 459.885 1054.03 460.288 1045.97 459.483 1039.52L453.842 1008.89C454.245 1002.51 456.26 997.14 459.885 992.774L479.614 979.878 516.66 949.653C519.497 947.84 522.285 946.429 525.022 945.422 527.759 944.414 530.345 943.81 532.779 943.608ZM3204.89 942.802C3206.48 942.794 3207.92 943.012 3209.21 943.457 3210.51 943.902 3211.75 944.624 3212.94 945.623L3228.24 966.579C3231.06 969.786 3234.07 972.137 3237.25 973.632 3240.43 975.126 3243.73 975.865 3247.17 975.848 3252.07 974.975 3257.18 973.497 3262.48 971.415L3272.56 964.161 3285.05 948.847C3286.69 947.235 3288.35 946.026 3290.04 945.22 3291.72 944.414 3293.29 944.011 3294.72 944.011 3297.14 944.011 3299.15 944.817 3300.77 946.429L3310.84 958.116 3319.3 966.579 3330.37 973.959 3332.81 971.847C3334.16 970.848 3335.64 969.893 3337.26 968.982 3343.9 966.136 3349.76 962.963 3354.83 959.463 3359.91 955.962 3364.25 952.285 3367.86 948.432 3372.7 943.529 3377.12 942.455 3381.15 945.208L3406.12 963.744C3408.54 965.691 3409.75 968.243 3409.75 971.4 3409.68 975.429 3407.8 980.265 3404.11 985.906 3401.08 991.119 3398.78 996.81 3397.21 1002.98 3395.64 1009.15 3394.85 1015.95 3394.84 1023.38 3395.01 1024.19 3394.96 1027.21 3394.69 1032.45 3394.41 1037.68 3394.06 1045.14 3393.63 1054.81L3392.82 1076.97 3390.01 1103.97C3388.8 1120.09 3390.01 1135 3393.63 1148.7 3397.26 1155.55 3403.3 1160.78 3411.76 1164.41 3415.86 1165.95 3423.38 1167.3 3434.33 1168.44L3441.18 1169.65 3442.8 1170.05C3442.98 1170.45 3443.01 1170.86 3442.9 1171.26 3442.78 1171.66 3442.61 1172.07 3442.39 1172.47L3423.05 1187.38 3405.72 1199.87C3403.52 1201.88 3401.37 1204.3 3399.27 1207.12 3397.17 1209.94 3395.02 1213.17 3392.82 1216.79 3391.8 1218.81 3390.83 1220.52 3389.91 1221.93 3388.98 1223.34 3388.21 1224.45 3387.59 1225.25 3387.19 1225.27 3386.79 1225.34 3386.39 1225.46 3385.99 1225.57 3385.59 1225.64 3385.2 1225.66 3383.66 1225.66 3382.32 1225.25 3381.18 1224.45L3367.46 1209.54C3361.02 1202.76 3355.79 1198.19 3351.76 1195.84L3329.2 1188.18C3325.77 1186.8 3323.36 1185.24 3322 1183.5 3320.63 1181.76 3320.34 1179.7 3321.14 1177.3L3335.24 1160.78C3336.64 1158.58 3337.78 1155.94 3338.67 1152.88 3339.56 1149.81 3340.3 1146.27 3340.89 1142.25L3345.32 1102.76 3347.74 1051.99C3347.35 1049.78 3347.12 1047.65 3347.03 1045.59 3346.95 1043.54 3346.91 1041.5 3346.93 1039.5 3346.93 1036.49 3347.03 1033.64 3347.23 1030.93 3347.43 1028.23 3347.74 1025.58 3348.14 1022.98 3347.54 1015.91 3345.72 1010 3342.7 1005.25 3340.43 1001.68 3337.49 998.828 3333.86 996.681L3331.66 995.59 3330.59 996.502C3327.97 998.399 3324.74 1000.25 3320.92 1002.04 3318.47 1003.06 3316.21 1004.25 3314.12 1005.62 3312.03 1006.99 3310.26 1008.48 3308.83 1010.1L3297.54 1029.45C3296.33 1031.24 3295.12 1032.69 3293.92 1033.78 3292.71 1034.87 3291.5 1035.71 3290.29 1036.3 3287.53 1035.96 3284.98 1034.62 3282.63 1032.27L3266.11 1002.85C3263.93 1001.23 3261.74 999.936 3259.56 998.97 3257.38 998.005 3254.99 997.417 3252.41 997.207 3246.36 997.677 3241.93 1000.77 3239.11 1006.48 3238.37 1009.63 3237.83 1023.87 3237.5 1049.19L3237.5 1125.36C3237.5 1135.37 3240.72 1142.76 3247.17 1147.53L3271.75 1155.99 3290.69 1164.86C3296.8 1166.06 3303.12 1166.47 3309.63 1166.06 3310.46 1166.05 3311.23 1165.98 3311.95 1165.86 3312.67 1165.75 3313.24 1165.68 3313.66 1165.66 3314.85 1165.65 3315.69 1165.77 3316.18 1166.01 3316.67 1166.26 3316.9 1166.68 3316.89 1167.27 3316.95 1169.36 3312.79 1174.06 3304.39 1181.38 3296.8 1185.74 3284.98 1194.34 3268.93 1207.17 3266.3 1210.01 3263.8 1211.99 3261.42 1213.11 3259.05 1214.24 3256.85 1214.41 3254.82 1213.62 3254.64 1213.62 3254.51 1213.62 3254.42 1213.62 3254.34 1213.62 3254.2 1213.62 3254.02 1213.62L3230.65 1201.13 3210.12 1192.26C3205.5 1190.45 3200.85 1188.83 3196.18 1187.42 3191.51 1186.01 3186.76 1184.8 3181.93 1183.8 3179.13 1183.39 3176.78 1182.99 3174.88 1182.59 3172.98 1182.18 3171.44 1181.78 3170.24 1181.38 3169.77 1180.64 3169.51 1179.7 3169.44 1178.56 3169.51 1177.68 3169.77 1176.61 3170.24 1175.33 3174.08 1169.51 3177.19 1164.54 3179.56 1160.42 3181.94 1156.31 3183.54 1152.95 3184.35 1150.35L3188.38 1103.2 3188.78 1031.87C3188.78 1017.29 3183.95 1007.75 3174.27 1003.25L3166.98 1001.92 3166.37 1002.46C3162.76 1005.96 3159.28 1010.25 3155.9 1015.34 3154.69 1017.17 3153.58 1018.75 3152.58 1020.08 3151.57 1021.4 3150.66 1022.38 3149.86 1023 3148.18 1023.47 3146.3 1022.93 3144.21 1021.39 3138.76 1014.94 3133.85 1009.8 3129.5 1005.97 3125.15 1002.14 3121.46 999.625 3118.42 998.416 3115.67 997.61 3113.11 997.207 3110.76 997.207 3108.75 997.274 3106.73 997.543 3104.72 998.013 3103.1 999.038 3101.71 1000.52 3100.54 1002.45 3099.37 1004.38 3098.48 1006.66 3097.87 1009.3L3099.08 1056.45 3094.65 1088.29 3092.64 1127.38C3093.91 1137.52 3097.4 1144.64 3103.11 1148.74L3126.88 1159.62C3135.75 1164.92 3142.2 1167.61 3146.23 1167.68 3149.92 1167.34 3156.64 1164.79 3166.38 1160.02L3171.62 1157.6 3173.23 1157.6C3173.3 1158.07 3173.16 1159.15 3172.83 1160.83L3159.93 1178.56C3158.1 1180.76 3155.72 1182.91 3152.78 1185.01 3149.84 1187.1 3146.45 1189.25 3142.6 1191.45 3138.91 1193.4 3132.19 1198.77 3122.45 1207.57 3119.85 1209.77 3117.2 1211.32 3114.49 1212.21 3111.79 1213.1 3108.93 1213.43 3105.93 1213.22L3080.57 1204.75 3064.05 1198.71 3042.71 1188.23C3040.71 1186.84 3039.27 1185.39 3038.38 1183.9 3037.49 1182.4 3037.05 1180.76 3037.07 1178.96 3037.08 1178.35 3037.15 1177.76 3037.27 1177.2 3037.38 1176.63 3037.45 1176.15 3037.47 1175.74 3041.97 1164.92 3044.25 1156.33 3044.32 1149.94 3043.33 1141.69 3042.69 1135.13 3042.41 1130.25 3042.12 1125.37 3042.09 1122.13 3042.3 1120.53 3044.72 1107.56 3045.53 1094.8 3044.72 1082.24L3043.51 1060.08C3043.98 1051.61 3044.25 1044.36 3044.32 1038.31 3044.32 1031.06 3043.92 1025.82 3043.11 1022.6 3040.9 1017.17 3039.27 1012.71 3038.22 1009.2 3037.17 1005.69 3036.65 1003.03 3036.66 1001.24 3036.66 1000.36 3036.66 999.692 3036.66 999.222L3057.2 983.505 3075.74 972.221C3081.76 968.007 3088.23 963.842 3095.16 959.728 3102.09 955.614 3109.57 951.45 3117.62 947.235 3120.24 947.621 3123.65 948.461 3127.84 949.754 3132.03 951.047 3136.95 952.894 3142.6 955.295L3165.98 962.549C3168.91 963.359 3171.62 964.214 3174.12 965.112L3175.83 965.813 3177.9 963.758 3196.03 945.623C3199.18 943.675 3202.13 942.735 3204.89 942.802ZM1227.85 942.802C1229.05 942.735 1230.26 942.869 1231.47 943.205 1233.3 944.423 1235.38 946.119 1237.71 948.293 1240.04 950.468 1242.52 953.07 1245.16 956.101 1250.79 962.885 1255.22 967.452 1258.44 969.803L1277.78 980.684C1280.67 983.169 1282.15 985.856 1282.22 988.744 1282.2 989.55 1282.03 990.356 1281.71 991.162 1281.39 991.968 1281.02 992.774 1280.6 993.58L1271.74 1001.64C1269.14 1004.05 1267.09 1006.79 1265.59 1009.85 1264.1 1012.92 1263.06 1016.36 1262.47 1020.18L1263.28 1135.44C1263.89 1138.88 1264.38 1142.07 1264.74 1145.01 1265.1 1147.95 1265.28 1150.53 1265.29 1152.77 1265.28 1156 1265 1158.7 1264.43 1160.88 1263.87 1163.05 1263.08 1164.65 1262.07 1165.66 1259.85 1166.85 1256.93 1168 1253.31 1169.09 1249.69 1170.18 1245.36 1171.32 1240.33 1172.51 1235.91 1173.32 1232.06 1174.22 1228.75 1175.23 1225.45 1176.24 1222.59 1177.35 1220.2 1178.56L1205.69 1186.62C1202.28 1188.43 1199.22 1190.55 1196.52 1192.96 1193.81 1195.38 1191.36 1198.1 1189.15 1201.13 1185.53 1206.15 1182.39 1210.3 1179.73 1213.57 1177.06 1216.83 1174.83 1219.27 1173.02 1220.87 1169.98 1223.08 1166.99 1224.31 1164.05 1224.55 1161.1 1224.79 1158.31 1224.1 1155.68 1222.48L1131.11 1206.36 1110.58 1191.45 1088.83 1182.99 1082.38 1179.36C1081.78 1178.78 1081.36 1178.24 1081.12 1177.75 1080.88 1177.26 1080.76 1176.73 1080.77 1176.14 1080.77 1175.55 1080.87 1175.01 1081.07 1174.53 1081.27 1174.04 1081.57 1173.5 1081.98 1172.92L1094.07 1161.23C1096.48 1158.4 1098.2 1155.29 1099.25 1151.91 1100.3 1148.53 1100.72 1144.92 1100.51 1141.08 1100.12 1132.8 1100.1 1125.08 1100.46 1117.91 1100.82 1110.74 1101.51 1104.22 1102.53 1098.36 1103.33 1095.14 1102.93 1084.26 1101.32 1065.72L1098.9 1027.84C1096.95 1019.84 1093.6 1014.07 1088.83 1010.51 1088.24 1010.3 1086.19 1009.61 1082.68 1008.44 1080.93 1007.86 1078.78 1007.17 1076.25 1006.37L1073.08 1005.39 1071.6 1007.03C1068.85 1009.69 1065.68 1012.33 1062.08 1014.94L1045.15 1027.84 1027.42 1041.94C1016.14 1049.19 1009.29 1054.03 1006.87 1056.45 1002.77 1063.3 1000.09 1071.36 998.811 1080.63 998.811 1082.58 999.616 1089.56 1001.23 1101.58L1002.44 1136.65C1003.25 1139.29 1005.65 1142.46 1009.64 1146.17 1013.63 1149.87 1019.15 1153.95 1026.21 1158.41 1031.64 1162.01 1037.41 1164.48 1043.54 1165.81 1049.67 1167.15 1056.25 1167.5 1063.29 1166.87L1070.54 1166.06 1072.56 1166.47C1072.57 1166.67 1072.64 1166.87 1072.76 1167.07 1072.88 1167.27 1072.94 1167.47 1072.96 1167.68 1072.89 1168.01 1072.62 1168.55 1072.15 1169.29L1054.42 1186.62 1040.32 1199.51 1023.79 1213.62C1018.49 1218.39 1013.38 1219.33 1008.48 1216.44L988.745 1201.93C985.524 1199.49 982.505 1197.32 979.686 1195.43 976.868 1193.54 974.251 1192.08 971.835 1191.05L945.663 1182.99C942.036 1181.04 939.618 1179.3 938.409 1177.75 938.4 1176.56 938.719 1175.01 939.366 1173.12 940.012 1171.22 941.037 1168.87 942.439 1166.06 946.066 1158 948.08 1145.11 948.483 1127.38 948.5 1119.32 948.466 1112.67 948.382 1107.43 948.298 1102.19 948.063 1098.36 947.677 1095.94 947.258 1090.29 946.989 1084.77 946.872 1079.37 946.754 1073.97 946.889 1068.75 947.275 1063.7 948.885 1054.03 949.288 1045.97 948.483 1039.52L942.842 1008.89C943.245 1002.51 945.26 997.14 948.885 992.774L968.614 979.878 1005.66 949.653C1008.5 947.84 1011.28 946.429 1014.02 945.422 1016.76 944.414 1019.34 943.81 1021.78 943.608 1029.44 944.414 1036.69 947.235 1043.54 952.071L1060.87 964.161C1064.31 966.378 1067.5 968.796 1070.44 971.415 1071.91 972.725 1073.29 974.085 1074.59 975.496L1077.67 979.235 1079.96 977.863C1087.55 974.303 1092.52 971.348 1094.87 968.997L1109.77 952.877C1113.46 949.653 1116.95 948.041 1120.24 948.041 1122.32 948.041 1124.2 948.847 1125.88 950.459L1142.39 968.191C1149.3 975.378 1153.19 981.96 1154.06 987.938L1154.87 1043.15 1148.83 1091.51C1146.41 1110.85 1147.22 1126.57 1151.24 1138.66 1152.24 1140.68 1154.78 1143.6 1158.85 1147.43 1162.93 1151.25 1168.59 1155.99 1175.84 1161.63 1183.91 1168.01 1191.98 1171.77 1200.05 1172.92 1204.69 1172.7 1208.2 1171.42 1210.58 1169.09 1212.96 1166.75 1214.15 1163.46 1214.16 1159.21 1210.13 1135.77 1208.11 1122.2 1208.11 1118.51L1210.94 1083.45C1213.28 1053.29 1213.82 1036.63 1212.55 1033.48 1209.72 1024.2 1207.01 1016.76 1204.43 1011.16 1201.85 1005.56 1199.45 1001.85 1197.22 1000.03 1195.62 999.206 1193.08 998.433 1189.61 997.711 1186.14 996.989 1181.68 996.418 1176.25 995.998L1169.79 995.192C1168.97 994.781 1168.4 994.193 1168.08 993.429 1167.76 992.665 1167.79 991.775 1168.18 990.759 1169.38 988.736 1171.01 986.536 1173.07 984.16 1175.13 981.784 1177.67 979.282 1180.68 976.654L1200.05 964.564C1202.24 963.162 1204.81 961.03 1207.76 958.167 1210.71 955.304 1214.18 951.66 1218.18 947.235 1221.4 944.347 1224.62 942.869 1227.85 942.802ZM2906.1 928.392C2906.78 928.432 2907.47 928.525 2908.18 928.672 2909.77 929.461 2911.52 930.603 2913.42 932.098 2915.31 933.592 2917.46 935.54 2919.87 937.941 2922.46 940.166 2924.83 942.063 2926.97 943.633 2929.11 945.203 2931.17 946.396 2933.16 947.21L2958.96 954.464 2981.12 964.539 2998.05 966.151 3004.5 966.957C3005.77 967.763 3006.44 968.569 3006.51 969.375 3006.49 969.77 3006.43 970.089 3006.31 970.332 3006.19 970.576 3006.12 970.794 3006.11 970.987L2988.38 987.107 2975.48 1000.41 2960.57 1013.71C2959.36 1015.34 2958.45 1017 2957.85 1018.69 2957.24 1020.38 2956.94 1021.94 2956.94 1023.38 2956.96 1025 2957.33 1026.59 2958.05 1028.16 2958.77 1029.73 2959.75 1031.23 2960.97 1032.65 2963.39 1034.59 2971.05 1038.36 2983.94 1043.93 2992.34 1048.3 2996.5 1054.48 2996.44 1062.47 2996.44 1066.9 2995.23 1071.74 2992.81 1076.98 2988.04 1087.12 2986.7 1103.91 2988.78 1127.35 2989.01 1132.8 2989.36 1137.22 2989.84 1140.6 2990.31 1143.98 2990.77 1146.28 2991.2 1147.5L2995.63 1160.8C2996.5 1166.04 2995.16 1170.07 2991.6 1172.89L2955.33 1182.56C2945.72 1189.82 2937.53 1194.25 2930.75 1195.86 2928.73 1196.85 2926.31 1198.6 2923.49 1201.1 2920.67 1203.6 2917.45 1206.96 2913.82 1211.18 2909.39 1216.48 2904.55 1218.36 2899.31 1216.82 2886.6 1209.97 2876.96 1204.83 2870.4 1201.4 2863.83 1197.98 2860.44 1196.26 2860.22 1196.26 2841.62 1188.67 2828.85 1182.09 2821.94 1176.52 2815.02 1172.49 2808.3 1170.47 2801.79 1170.47 2799.87 1170.47 2797.96 1170.67 2796.04 1171.08L2794.69 1171.43 2795.25 1172.87C2795.26 1173.27 2795.23 1173.69 2795.15 1174.13 2795.06 1174.58 2794.83 1175.1 2794.44 1175.69 2791.28 1178.98 2784.7 1182.07 2774.69 1184.96L2770.41 1186.63 2769.85 1187.05C2767.72 1188.62 2766.54 1189.4 2766.32 1189.41 2766.11 1189.43 2765.93 1189.4 2765.77 1189.31L2765.6 1189.1 2764.97 1189.44C2762.29 1191.19 2760.15 1193.19 2758.57 1195.44L2750.92 1210.34C2749.13 1212.36 2747.37 1213.87 2745.63 1214.88 2743.9 1215.89 2742.03 1216.39 2740.05 1216.39 2739.26 1216.38 2738.52 1216.3 2737.83 1216.14 2737.14 1215.98 2736.41 1215.79 2735.62 1215.58 2732.33 1213.64 2729.65 1211.08 2727.57 1207.93L2716.7 1193.02 2696.96 1176.9C2694.13 1175.08 2691.32 1174.09 2688.54 1173.93 2685.76 1173.77 2683.06 1174.49 2680.43 1176.1L2661.88 1186.98C2657.85 1189.21 2654.61 1191.29 2652.15 1193.22 2649.68 1195.15 2647.95 1196.83 2646.95 1198.26L2635.26 1213.97C2632.44 1215.92 2629.62 1216.86 2626.8 1216.79 2625.99 1216.78 2625.2 1216.71 2624.44 1216.59 2623.67 1216.47 2622.98 1216.41 2622.37 1216.39 2620.94 1215.37 2619.28 1213.98 2617.39 1212.21 2615.5 1210.44 2613.54 1208.34 2611.5 1205.91 2607.01 1200.67 2603.12 1197.05 2599.83 1195.03L2574.45 1186.17C2572.46 1185.17 2571.01 1184.05 2570.12 1182.79 2569.23 1181.54 2568.79 1180.12 2568.81 1178.51 2568.79 1177.91 2568.83 1177.31 2568.91 1176.7 2569 1176.1 2569.23 1175.49 2569.62 1174.89L2578.89 1164.01C2580.43 1161.59 2581.77 1150.31 2582.92 1130.16L2586.54 1077.38 2584.93 1051.19 2586.54 1023.39C2586.12 1018.96 2585.05 1015.23 2583.32 1012.21 2581.59 1009.18 2579.31 1006.87 2576.47 1005.26 2572.04 1004.05 2566.39 1003.64 2559.54 1004.05 2557.7 1004.26 2556.04 1004.34 2554.56 1004.3 2553.07 1004.26 2551.91 1004.04 2551.08 1003.64 2550.87 1003.26 2550.69 1002.92 2550.53 1002.64 2550.37 1002.35 2550.28 1002.02 2550.27 1001.63 2550.27 1001.01 2550.37 1000.34 2550.58 999.615 2550.78 998.893 2551.08 998.221 2551.48 997.6 2555.85 991.959 2562.43 986.318 2571.23 980.677 2574.43 978.688 2577.3 976.421 2579.84 973.878 2582.39 971.334 2584.75 968.363 2586.95 964.963 2590.15 960.741 2592.8 957.299 2594.9 954.638 2596.99 951.977 2598.64 950.046 2599.83 948.846 2603.12 946.361 2606.2 944.884 2609.09 944.414 2610.52 944.808 2611.98 945.631 2613.47 946.882 2614.95 948.132 2616.31 949.862 2617.54 952.069 2619.57 955.301 2622.26 958.709 2625.59 962.294 2628.93 965.878 2632.83 969.588 2637.27 973.424 2640.5 976.648 2642.11 981.08 2642.11 986.721 2642.1 989.743 2641.63 993.168 2640.7 996.996 2639.78 1000.82 2638.5 1005.05 2636.87 1009.69 2636.26 1012.31 2635.77 1017.95 2635.41 1026.61 2635.05 1035.27 2634.86 1046.96 2634.85 1061.67L2634.85 1088.66 2634.45 1127.34C2634.43 1131.15 2634.97 1134.71 2636.06 1138.02 2637.16 1141.33 2638.9 1144.48 2641.31 1147.49 2645.34 1151.11 2649.78 1154.34 2654.62 1157.16 2658.24 1158.97 2661.68 1160.28 2664.95 1161.09 2668.22 1161.89 2671.36 1162.2 2674.38 1161.99 2677.79 1161.2 2681.05 1159.97 2684.16 1158.32 2687.27 1156.66 2690.33 1154.53 2693.33 1151.92 2698.58 1146.68 2701 1138.62 2700.59 1127.75L2700.59 1087.86 2699.38 1056.83 2701.4 1022.18C2701.73 1012.51 2699.45 1005.66 2694.54 1001.63L2677.2 995.988C2676.2 995.778 2675.18 995.392 2674.13 994.83 2673.08 994.267 2671.95 993.579 2670.75 992.765 2670.54 992.16 2670.35 991.556 2670.19 990.952 2670.03 990.347 2669.95 989.743 2669.94 989.139 2669.93 988.543 2669.95 987.921 2669.99 987.275 2670.03 986.629 2670.15 985.907 2670.34 985.109 2672.18 982.482 2674.46 979.98 2677.2 977.605 2679.94 975.229 2683.03 973.03 2686.48 971.007L2702.61 961.74 2719.51 943.205C2720.72 942.189 2721.93 941.4 2723.14 940.838 2724.34 940.275 2725.55 939.99 2726.76 939.981 2727.57 939.99 2728.37 940.174 2729.18 940.535 2729.98 940.896 2730.79 941.383 2731.59 941.996L2740.05 955.293C2741.25 957.324 2742.86 959.204 2744.88 960.934 2746.89 962.663 2749.31 964.14 2752.13 965.366L2772.28 973.424C2776.31 976.581 2778.32 979.535 2778.32 982.289 2778.33 982.91 2778.21 983.581 2777.97 984.303 2777.73 985.025 2777.31 985.697 2776.71 986.318 2775.49 987.309 2773.7 988.349 2771.32 989.441 2768.94 990.532 2766.04 991.774 2762.6 993.168 2755.42 995.921 2750.85 1000.49 2748.9 1006.87L2749.31 1071.34 2749.71 1126.13C2752.53 1139.09 2758.98 1149.03 2769.05 1155.95L2787.73 1164.12 2787.91 1163.96C2793.68 1158.32 2800.39 1151.71 2808.03 1144.13 2818.23 1134.01 2829.98 1122.1 2843.3 1108.41 2844.91 1106.8 2845.71 1105.19 2845.71 1103.57 2845.71 1102.19 2845.21 1100.93 2844.2 1099.8 2843.19 1098.66 2841.68 1097.5 2839.67 1096.32L2817.5 1090.28C2814.9 1089.06 2812.85 1087.46 2811.36 1085.49 2809.86 1083.52 2808.82 1081.22 2808.23 1078.59 2808.57 1074.16 2810.32 1066.5 2813.47 1055.62 2814.69 1051.57 2815.58 1047.47 2816.14 1043.33 2816.71 1039.18 2816.89 1035.08 2816.7 1031.03L2810.25 998.794C2809.65 995.385 2809.75 992.329 2810.55 989.626 2811.36 986.922 2812.87 984.471 2815.09 982.271L2839.67 973.405C2843.3 972.196 2848.94 968.972 2856.59 963.733L2874.33 954.464C2877.95 952.382 2881.18 950.098 2884 947.613L2893.67 935.12C2895.69 932.484 2897.9 930.603 2900.32 929.478 2902.13 928.634 2904.06 928.272 2906.1 928.392ZM3734.42 901.696C3736.03 901.763 3737.64 902.031 3739.26 902.5 3741.46 903.516 3743 905.01 3743.89 906.983 3744.78 908.955 3745.12 911.356 3744.9 914.185L3736.84 939.167C3736.82 939.956 3736.76 940.695 3736.64 941.384 3736.52 942.072 3736.45 942.811 3736.44 943.6 3736.45 947.05 3737.13 950.122 3738.5 952.817 3739.87 955.512 3741.87 957.677 3744.5 959.314 3745.37 959.784 3757.73 960.859 3781.57 962.538L3816.23 964.552 3829.53 964.15 3854.21 963.413 3871.33 954.464C3874.95 952.382 3878.18 950.098 3881 947.613L3890.67 935.12C3892.69 932.484 3894.9 930.603 3897.32 929.478 3899.74 928.353 3902.36 928.084 3905.18 928.672 3906.77 929.461 3908.52 930.603 3910.42 932.098 3912.31 933.592 3914.46 935.54 3916.87 937.941 3919.46 940.166 3921.83 942.063 3923.97 943.633 3926.11 945.203 3928.17 946.396 3930.16 947.21L3955.96 954.464 3978.12 964.539 3995.05 966.151 4001.5 966.957C4002.77 967.763 4003.44 968.569 4003.51 969.375 4003.49 969.77 4003.43 970.089 4003.31 970.332 4003.19 970.576 4003.12 970.794 4003.11 970.987L3985.38 987.107 3972.48 1000.41 3957.57 1013.71C3956.36 1015.34 3955.45 1017 3954.85 1018.69 3954.24 1020.38 3953.94 1021.94 3953.94 1023.38 3953.96 1025 3954.33 1026.59 3955.05 1028.16 3955.77 1029.73 3956.75 1031.23 3957.97 1032.65 3960.39 1034.59 3968.05 1038.36 3980.94 1043.93 3989.34 1048.3 3993.5 1054.48 3993.44 1062.47 3993.44 1066.9 3992.23 1071.74 3989.81 1076.98 3985.04 1087.12 3983.7 1103.91 3985.78 1127.35 3986.01 1132.8 3986.36 1137.22 3986.84 1140.6 3987.31 1143.98 3987.77 1146.28 3988.2 1147.5L3992.63 1160.8C3993.5 1166.04 3992.16 1170.07 3988.6 1172.89L3952.33 1182.56C3942.72 1189.82 3934.53 1194.25 3927.75 1195.86 3925.73 1196.85 3923.31 1198.6 3920.49 1201.1 3917.67 1203.6 3914.45 1206.96 3910.82 1211.18 3906.39 1216.48 3901.55 1218.36 3896.31 1216.82 3883.6 1209.97 3873.96 1204.83 3867.4 1201.4 3860.83 1197.98 3857.44 1196.26 3857.22 1196.26 3838.62 1188.67 3825.85 1182.09 3818.94 1176.52 3812.02 1172.49 3805.3 1170.47 3798.79 1170.47L3797.13 1170.56 3793.71 1173.79C3792.1 1175.13 3790.34 1176.44 3788.42 1177.71 3784.59 1180.24 3780.16 1182.53 3775.12 1184.56 3767.53 1188.25 3762.16 1191.34 3759 1193.82L3741.27 1212.76C3737.58 1215.99 3733.69 1217.6 3729.59 1217.6 3728.98 1217.58 3728.39 1217.51 3727.83 1217.4 3727.27 1217.28 3726.78 1217.21 3726.37 1217.19 3724.56 1216.57 3722.75 1215.7 3720.94 1214.58 3719.12 1213.45 3717.31 1212.17 3715.5 1210.75L3701.01 1197.45C3700.18 1196.65 3697.4 1195.03 3692.65 1192.62 3687.9 1190.2 3681.29 1186.97 3672.81 1182.95L3665.56 1179.32C3664.75 1178.45 3664.35 1177.37 3664.35 1176.1 3664.36 1175.52 3664.44 1175.05 3664.6 1174.68 3664.76 1174.32 3664.94 1173.85 3665.15 1173.27L3678.05 1160.38C3680.68 1157.14 3682.58 1153.14 3683.74 1148.39 3684.91 1143.64 3685.3 1138.24 3684.9 1132.17 3684.03 1116.12 3684.57 1105.11 3686.51 1099.13 3690.2 1086.58 3691.68 1076.23 3690.94 1068.11L3686.91 1032.65C3687.12 1026.62 3686.71 1021.55 3685.71 1017.44 3684.7 1013.32 3683.09 1010.07 3680.87 1007.67L3659.92 996.788 3658.47 995.434 3651.29 999.575C3647.66 1001.99 3644.84 1004.81 3642.83 1008.04 3641.62 1012 3641.22 1022.61 3641.62 1039.87L3637.19 1063.25 3638.8 1089.44 3640.81 1109.19C3642.76 1125.78 3642.9 1138.14 3641.22 1146.27 3641.43 1151.3 3639.99 1155.75 3636.89 1159.62 3633.78 1163.49 3628.92 1166.83 3622.29 1169.64L3608.6 1179.31 3584.85 1197.85C3581.21 1200.69 3576.08 1202.67 3569.47 1203.8 3562.85 1204.92 3554.8 1205.09 3545.32 1204.3 3541.87 1204.5 3538.78 1205.1 3536.04 1206.11 3533.3 1207.12 3531.02 1208.53 3529.18 1210.34 3527.39 1213.36 3526.15 1216.8 3525.46 1220.67 3524.77 1224.54 3524.53 1228.89 3524.75 1233.72L3528.78 1256.29C3529.58 1260.9 3529.9 1266.28 3529.74 1272.41 3529.58 1278.53 3528.99 1285.52 3527.97 1293.36 3527.38 1296.58 3526.66 1298.91 3525.81 1300.36 3524.96 1301.82 3523.94 1302.44 3522.74 1302.23L3515.89 1292.56C3513.81 1290.61 3511.53 1289.67 3509.05 1289.73 3507.66 1289.74 3506.22 1290.03 3504.72 1290.59 3503.23 1291.15 3501.59 1291.94 3499.79 1292.96 3495.95 1295.99 3492.26 1299.8 3488.72 1304.39 3485.18 1308.99 3481.89 1314.31 3478.86 1320.36 3477.87 1322.17 3476.93 1323.7 3476.04 1324.95 3475.15 1326.2 3474.21 1327.22 3473.22 1328.02 3472.34 1328.49 3471.67 1328.76 3471.2 1328.83 3470.98 1328.8 3470.71 1328.75 3470.39 1328.67 3470.08 1328.6 3469.81 1328.65 3469.59 1328.83 3469 1328.05 3468.46 1327.29 3467.98 1326.56 3467.49 1325.83 3466.95 1324.97 3466.36 1323.99 3464.75 1314.65 3465.96 1304.31 3469.99 1292.96 3471.82 1287.71 3472.9 1282.09 3473.22 1276.08 3473.53 1270.08 3473 1263.75 3471.6 1257.09L3475.63 1206.72C3474.23 1204.32 3472.7 1202.37 3471.05 1200.87 3469.4 1199.38 3467.57 1198.24 3465.56 1197.45 3464.15 1197.07 3462.64 1197.12 3461.03 1197.6 3459.41 1198.08 3457.7 1198.83 3455.89 1199.87 3450.65 1202.35 3444.2 1203.43 3436.54 1203.09 3434.46 1202.75 3432.58 1202.22 3430.9 1201.48 3430.09 1201.01 3429.69 1200.34 3429.69 1199.46 3429.69 1198.72 3430.09 1197.78 3430.9 1196.64L3451.45 1178.91C3457.3 1173.89 3462.13 1169.42 3465.96 1165.51 3469.79 1161.6 3472.61 1158.14 3474.42 1155.13 3475.66 1152.3 3476.51 1147.48 3476.99 1140.68 3477.47 1133.87 3477.42 1125.12 3476.84 1114.43L3476.44 1098.71 3477.65 1076.95 3477.25 1055.59 3476.84 1028.99C3476.84 1017.24 3473.62 1009.72 3467.17 1006.43 3464.96 1005.64 3461.82 1005.1 3457.75 1004.81 3453.68 1004.53 3448.62 1004.39 3442.59 1004.41 3440.4 1004.42 3438.53 1004.3 3437 1004.06 3435.46 1003.81 3434.1 1003.4 3432.92 1002.8 3432.53 1002.38 3432.29 1001.91 3432.21 1001.39 3432.13 1000.87 3432.09 1000.4 3432.11 999.978 3432.11 999.39 3432.21 998.752 3432.41 998.064 3432.61 997.375 3432.92 996.536 3433.32 995.545 3435.73 992.296 3438.67 989.324 3442.13 986.629 3445.6 983.933 3449.65 981.667 3454.27 979.828 3462.27 975.865 3467.64 972.91 3470.39 970.962L3486.51 950.812C3489.39 948.73 3492.48 947.655 3495.76 947.588 3500.19 947.521 3505.02 949.67 3510.26 954.036L3536.44 974.589C3538.65 975.605 3540.79 976.394 3542.85 976.957 3544.91 977.519 3546.94 977.805 3548.95 977.813 3550.17 977.805 3551.36 977.721 3552.53 977.561 3553.7 977.401 3554.79 977.217 3555.8 977.007 3561.85 973.38 3570.32 965.723 3581.22 954.036 3584.23 951.005 3587.17 948.805 3590.03 947.437 3592.89 946.068 3595.73 945.581 3598.54 945.976 3600.77 946.58 3603.45 947.789 3606.59 949.603 3609.73 951.416 3613.22 953.834 3617.06 956.857 3620.87 960.047 3624.41 962.532 3627.68 964.312 3630.94 966.092 3633.97 967.369 3636.78 968.141 3641.42 969.333 3645.55 970.676 3649.18 972.171 3652.8 973.665 3655.93 975.412 3658.55 977.41L3660.51 979.974 3662.01 978.413C3671.18 968.879 3684.04 955.797 3700.6 939.167L3727.18 903.306C3728.38 902.71 3729.59 902.291 3730.8 902.048 3732.01 901.805 3733.22 901.688 3734.42 901.696ZM679.984 868.247C680.976 868.247 681.917 868.449 682.807 868.853 683.698 869.257 684.639 869.862 685.631 870.667L698.537 892.426C699.948 894.617 701.965 896.884 704.586 899.226 707.208 901.568 710.434 904.137 714.266 906.932L733.621 921.438 748.921 936.749 766.234 953.27 781.936 967.373 800.068 979.058C800.47 979.646 800.773 980.284 800.974 980.972 801.176 981.66 801.276 982.5 801.276 983.49 801.293 986.302 800.353 989.946 798.456 994.42 796.558 998.894 793.603 1004.25 789.589 1010.49 788.171 1013.53 787.18 1022.66 786.618 1037.89 786.055 1053.11 785.971 1074.34 786.365 1101.55L791.604 1149.1C788.38 1153.6 781.534 1157.49 771.065 1160.78 768.037 1162.98 764.934 1165.03 761.755 1166.93 758.575 1168.83 755.371 1170.67 752.142 1172.47L738.855 1182.14C731.606 1186.97 725.964 1191 721.929 1194.23 715.879 1203.96 711.443 1210.28 708.619 1213.17 707.594 1213.78 706.519 1214.26 705.393 1214.63 704.267 1214.99 703.191 1215.17 702.166 1215.18 699.755 1215.16 697.217 1214.49 694.554 1213.17 691.89 1211.84 689.05 1209.96 686.034 1207.52 683.798 1205.53 679.901 1203.48 674.341 1201.38 668.781 1199.28 661.662 1197.03 652.985 1194.63L632.049 1185.77 602.245 1179.32 595.797 1176.9C594.655 1175.69 594.118 1174.48 594.185 1173.27 594.177 1172.85 594.193 1172.38 594.235 1171.86 594.277 1171.34 594.395 1170.87 594.588 1170.45L603.857 1157.56C605.049 1155.35 606.292 1150.5 607.585 1143 608.878 1135.51 610.322 1125.32 611.917 1112.43L612.723 1043.53C612.655 1033.86 611.581 1026.6 609.499 1021.77L601.842 1011.29C600.633 1009.31 599.726 1007.53 599.122 1005.95 598.517 1004.38 598.215 1002.8 598.215 1001.22 598.215 998.466 599.424 995.914 601.842 993.564 603.456 992.355 610.706 989.534 623.593 985.102L645.738 977.446 666.271 968.582C669.666 966.768 672.052 964.854 673.43 962.84 674.808 960.825 675.38 958.71 675.144 956.493 674.119 954.269 672.54 951.969 670.406 949.593 668.273 947.217 665.687 944.817 662.648 942.391 656.609 937.555 650.972 934.332 645.738 932.72L622.385 927.482 615.541 923.855C615.138 923.268 614.836 922.731 614.635 922.244 614.434 921.757 614.333 921.219 614.333 920.632 614.4 919.49 614.669 918.55 615.138 917.811 616.933 916.015 619.383 914.067 622.486 911.969 625.59 909.87 629.448 907.52 634.062 904.917 642.45 899.679 649.026 894.844 653.79 890.411L671.111 872.279C672.741 870.877 674.321 869.853 675.85 869.206 677.379 868.558 678.757 868.239 679.984 868.247ZM2032.82 844.067C2034.01 844.076 2035.15 844.361 2036.24 844.924 2037.33 845.487 2038.48 846.276 2039.67 847.292 2042.09 850.851 2045.71 859.045 2050.55 871.872L2070.7 910.957 2079.97 933.119 2087.62 959.311C2088.9 968.981 2085.95 976.234 2078.76 981.07L2055.38 992.755C2051.15 995.156 2048.13 997.909 2046.32 1001.02 2044.5 1004.12 2043.9 1007.68 2044.5 1011.69 2047.32 1018.95 2051.35 1026.6 2056.59 1034.66L2069.09 1052.79 2082.79 1067.7C2088.03 1073.68 2092.46 1079.86 2096.09 1086.24L2103.74 1105.98C2104.15 1107.41 2104.45 1108.89 2104.65 1110.41 2104.85 1111.94 2104.95 1113.42 2104.95 1114.85 2105.02 1118.47 2104.48 1122.1 2103.34 1125.73L2093.27 1149.1C2092.07 1150.73 2090.03 1153.21 2087.17 1156.55 2084.31 1159.89 2080.56 1163.99 2075.94 1168.84L2059.41 1186.17 2041.68 1199.47 2027.17 1214.78C2025.13 1216.58 2022.97 1217.91 2020.68 1218.76 2018.39 1219.6 2016.12 1220.02 2013.88 1220.02 2012.85 1219.41 2011.79 1218.81 2010.71 1218.2 2009.63 1217.6 2008.67 1216.99 2007.84 1216.39 2006.23 1213.97 2005.42 1211.55 2005.42 1209.14 2005.42 1207.52 2005.83 1205.91 2006.63 1204.3 2008.04 1202.91 2010.36 1201.46 2013.58 1199.97 2016.8 1198.48 2020.93 1196.83 2025.97 1195.03 2030.8 1193.49 2034.83 1190.53 2038.06 1186.17L2047.32 1167.63C2049.12 1164.22 2050.36 1160.97 2051.05 1157.86 2051.74 1154.76 2051.98 1151.7 2051.76 1148.69 2049.74 1139.9 2046.12 1131.7 2040.88 1124.12L2030.8 1110.01 2011.87 1093.09 1998.58 1077.37 1982.47 1056.42C1980.05 1052.86 1978.84 1049.5 1978.84 1046.35 1978.86 1044.73 1979.13 1043.22 1979.65 1041.81 1980.17 1040.4 1980.84 1039.09 1981.66 1037.88L1998.17 1020.96C2002.8 1015.94 2006.54 1011.78 2009.4 1008.47 2012.26 1005.16 2014.29 1002.61 2015.49 1000.81 2018.71 993.494 2020.32 985.569 2020.32 977.04 2020.32 968.578 2018.71 959.311 2015.49 949.237 2013.07 942.404 2010.25 936.628 2007.02 931.911 2003.8 927.193 2000.17 923.432 1996.14 920.628 1993.1 918.63 1989.81 917.085 1986.27 915.994 1982.73 914.903 1979.03 914.164 1975.19 913.778 1965.58 913.845 1959.4 917.74 1956.65 925.463L1954.23 950.446 1949.4 983.487 1950.2 1130.56C1950.27 1138.62 1952.96 1144.26 1958.26 1147.49L1988.89 1152.32C1990.28 1152.9 1991.53 1153.45 1992.62 1153.98 1993.71 1154.51 1994.75 1155.17 1995.74 1155.95 1996.21 1156.42 1996.48 1157.09 1996.55 1157.96 1996.54 1158.75 1996.35 1159.49 1995.99 1160.18 1995.63 1160.87 1995.14 1161.61 1994.53 1162.39 1990.9 1165.22 1984.05 1168.44 1973.98 1172.07 1969.74 1173.49 1966.13 1175.27 1963.15 1177.4 1960.17 1179.54 1957.87 1181.92 1956.25 1184.56L1945.37 1203.5C1941.34 1207.86 1937.32 1210.01 1933.29 1209.94 1932.42 1209.88 1931.35 1209.61 1930.07 1209.14 1926.11 1207.05 1921.95 1202.35 1917.59 1195.03 1912.69 1187.44 1908.8 1182.47 1905.91 1180.12L1886.98 1170.45C1883.76 1168.1 1882.14 1165.15 1882.14 1161.59 1882.14 1159.36 1882.65 1156.87 1883.66 1154.13 1884.66 1151.4 1886.17 1148.51 1888.19 1145.47 1889.21 1143.84 1890.5 1138.74 1892.07 1130.16 1893.64 1121.58 1895.44 1109.63 1897.46 1094.3L1897.46 1052.79C1900.61 1035.87 1901.55 1021.77 1900.28 1010.48 1899.4 999.202 1899.54 990.74 1900.68 985.099 1902.88 976.436 1904.42 969.284 1905.31 963.642 1906.2 958.001 1906.53 953.871 1906.32 951.252 1904.92 946.215 1902.88 941.783 1900.18 937.955 1897.47 934.127 1894.02 930.903 1889.8 928.284L1870.86 920.628 1849.9 909.346C1846.5 907.541 1842.94 906.114 1839.23 905.064 1835.51 904.015 1831.55 903.293 1827.34 902.898 1823.29 902.907 1820.1 903.595 1817.77 904.964 1815.43 906.332 1814.05 908.33 1813.63 910.957 1814.1 914.584 1817.6 923.046 1824.11 936.343L1832.17 958.505 1842.65 982.279 1849.1 1001.62 1855.14 1017.74C1855.35 1019.32 1855.54 1020.79 1855.7 1022.17 1855.86 1023.55 1855.94 1025.02 1855.95 1026.6 1855.93 1027.21 1855.87 1027.91 1855.75 1028.72 1855.63 1029.52 1855.56 1030.43 1855.55 1031.44 1855.14 1033.05 1853.13 1038.29 1849.5 1047.15L1840.23 1069.72C1839.41 1071.94 1837.83 1074.75 1835.5 1078.13 1833.16 1081.51 1830.17 1085.42 1826.53 1089.86L1815.25 1103.56 1798.72 1123.31C1796.64 1126.06 1795.57 1128.61 1795.5 1130.97 1795.5 1132.91 1796.31 1134.66 1797.92 1136.2L1811.62 1143.46 1829.75 1151.92 1853.53 1157.16C1858.37 1157.96 1861.99 1159.17 1864.41 1160.78 1864.88 1161.59 1865.15 1162.39 1865.22 1163.2 1865.2 1163.81 1865.03 1164.41 1864.72 1165.01 1864.4 1165.62 1864.03 1166.22 1863.61 1166.83 1859.11 1171.19 1851.58 1175.76 1841.04 1180.53 1834.66 1183.35 1829.69 1186.97 1826.13 1191.41L1815.25 1208.73C1813.24 1210.56 1811.31 1211.94 1809.45 1212.86 1807.6 1213.79 1805.77 1214.16 1803.96 1213.97 1799.87 1212.7 1796.78 1210.41 1794.69 1207.12 1791 1201.55 1787.91 1198.19 1785.42 1197.05L1763.26 1185.77C1759.16 1183.35 1753.25 1180.53 1745.53 1177.3L1721.35 1173.27 1713.29 1170.05C1712.48 1168.84 1712.08 1167.63 1712.08 1166.42 1712.06 1166.03 1712.1 1165.61 1712.18 1165.17 1712.26 1164.72 1712.5 1164.2 1712.88 1163.6 1713.47 1163.19 1715.72 1161.8 1719.63 1159.42 1723.55 1157.05 1729.22 1153.74 1736.66 1149.5L1752.78 1136.61 1772.93 1120.89C1774.35 1119.3 1775.95 1116.95 1777.72 1113.84 1779.49 1110.73 1781.39 1106.77 1783.41 1101.95 1792.28 1084.16 1796.71 1070.59 1796.71 1061.26 1796.7 1060.23 1796.62 1059.26 1796.46 1058.33 1796.3 1057.41 1796.11 1056.64 1795.9 1056.02 1794.76 1050.78 1787.78 1035.87 1774.95 1011.29L1763.66 984.293 1753.59 962.534 1741.9 939.969C1740.08 936.528 1739.19 933.136 1739.23 929.795 1739.27 926.454 1740.3 923.264 1742.3 920.225 1743.69 918.806 1745.75 917.01 1748.5 914.836 1751.25 912.661 1754.82 910.16 1759.23 907.331L1777.77 895.243 1797.11 879.931 1816.05 868.648 1830.16 853.739C1833.21 850.499 1835.98 848.316 1838.47 847.191 1840.96 846.067 1843.03 846.1 1844.67 847.292 1848.9 851.347 1852.63 854.721 1855.85 857.416 1859.07 860.111 1861.79 861.974 1864.01 863.007L1888.19 869.051 1907.53 879.125 1953.07 898.466C1954.3 898.869 1955.57 899.171 1956.9 899.373 1958.22 899.574 1959.5 899.675 1960.72 899.675 1964.35 899.608 1967.57 898.936 1970.39 897.66L1989.31 881.542C1995.15 877.731 1999.78 874.575 2003.21 872.073 2006.63 869.572 2008.85 867.624 2009.85 866.231L2023.14 849.307C2024.78 847.678 2026.44 846.402 2028.13 845.478 2029.82 844.554 2031.38 844.084 2032.82 844.067ZM350.816 844.067C352.009 844.076 353.151 844.361 354.242 844.924 355.333 845.487 356.475 846.276 357.667 847.292 360.086 850.851 363.712 859.045 368.548 871.872L388.698 910.957 397.967 933.119 405.624 959.311C406.901 968.981 403.945 976.234 396.759 981.07L373.384 992.755C369.153 995.156 366.13 997.909 364.317 1001.02 362.503 1004.12 361.899 1007.68 362.503 1011.69 365.324 1018.95 369.354 1026.6 374.594 1034.66L387.087 1052.79 400.788 1067.7C406.027 1073.68 410.46 1079.86 414.087 1086.24L421.745 1105.98C422.147 1107.41 422.45 1108.89 422.651 1110.41 422.853 1111.94 422.953 1113.42 422.953 1114.85 423.021 1118.47 422.483 1122.1 421.341 1125.73L411.267 1149.1C410.066 1150.73 408.034 1153.21 405.171 1156.55 402.308 1159.89 398.564 1163.99 393.938 1168.84L377.415 1186.17 359.682 1199.47 345.174 1214.78C343.134 1216.58 340.969 1217.91 338.677 1218.76 336.386 1219.6 334.12 1220.02 331.88 1220.02 330.848 1219.41 329.791 1218.81 328.709 1218.2 327.626 1217.6 326.67 1216.99 325.839 1216.39 324.228 1213.97 323.423 1211.55 323.423 1209.14 323.423 1207.52 323.826 1205.91 324.631 1204.3 326.041 1202.91 328.356 1201.46 331.578 1199.97 334.801 1198.48 338.93 1196.83 343.966 1195.03 348.802 1193.49 352.831 1190.53 356.056 1186.17L365.324 1167.63C367.121 1164.22 368.364 1160.97 369.052 1157.86 369.741 1154.76 369.976 1151.7 369.758 1148.69 367.743 1139.9 364.116 1131.7 358.876 1124.12L348.802 1110.01 329.866 1093.09 316.577 1077.37 300.468 1056.42C298.052 1052.86 296.844 1049.5 296.844 1046.35 296.861 1044.73 297.129 1043.22 297.65 1041.81 298.17 1040.4 298.841 1039.09 299.663 1037.88L316.174 1020.96C320.797 1015.94 324.539 1011.78 327.4 1008.47 330.261 1005.16 332.291 1002.61 333.491 1000.81 336.712 993.494 338.323 985.569 338.323 977.04 338.324 968.578 336.712 959.311 333.487 949.237 331.069 942.404 328.249 936.628 325.024 931.911 321.801 927.193 318.173 923.432 314.144 920.628 311.104 918.63 307.813 917.085 304.27 915.994 300.727 914.903 297.033 914.164 293.188 913.778 283.583 913.845 277.403 917.74 274.65 925.463L272.232 950.446 267.396 983.487 268.202 1130.56C268.269 1138.62 270.955 1144.26 276.262 1147.49L306.889 1152.32C308.283 1152.9 309.526 1153.45 310.617 1153.98 311.709 1154.51 312.75 1155.17 313.741 1155.95 314.211 1156.42 314.479 1157.09 314.547 1157.96 314.538 1158.75 314.353 1159.49 313.992 1160.18 313.631 1160.87 313.144 1161.61 312.532 1162.39 308.905 1165.22 302.053 1168.44 291.979 1172.07 287.739 1173.49 284.128 1175.27 281.148 1177.4 278.167 1179.54 275.867 1181.92 274.247 1184.56L263.37 1203.5C259.344 1207.86 255.318 1210.01 251.291 1209.94 250.419 1209.88 249.345 1209.61 248.071 1209.14 244.111 1207.05 239.951 1202.35 235.59 1195.03 230.691 1187.44 226.799 1182.47 223.914 1180.12L204.981 1170.45C201.757 1168.1 200.145 1165.15 200.145 1161.59 200.145 1159.36 200.649 1156.87 201.656 1154.13 202.664 1151.4 204.175 1148.51 206.19 1145.47 207.206 1143.84 208.499 1138.74 210.069 1130.16 211.639 1121.58 213.436 1109.63 215.459 1094.3L215.459 1052.79C218.613 1035.87 219.552 1021.77 218.277 1010.48 217.405 999.202 217.539 990.74 218.68 985.099 220.877 976.436 222.421 969.284 223.31 963.642 224.199 958.001 224.534 953.871 224.316 951.252 222.924 946.215 220.877 941.783 218.176 937.955 215.474 934.127 212.016 930.903 207.802 928.284L188.861 920.628 167.905 909.346C164.496 907.541 160.936 906.114 157.225 905.064 153.514 904.015 149.552 903.293 145.337 902.898 141.29 902.907 138.1 903.595 135.766 904.964 133.432 906.332 132.055 908.33 131.635 910.957 132.105 914.584 135.598 923.046 142.113 936.343L150.173 958.505 160.651 982.279 167.099 1001.62 173.144 1017.74C173.354 1019.32 173.538 1020.79 173.698 1022.17 173.858 1023.55 173.942 1025.02 173.95 1026.6 173.933 1027.21 173.866 1027.91 173.748 1028.72 173.631 1029.52 173.564 1030.43 173.547 1031.44 173.144 1033.05 171.129 1038.29 167.502 1047.15L158.233 1069.72C157.41 1071.94 155.832 1074.75 153.498 1078.13 151.164 1081.51 148.175 1085.42 144.531 1089.86L133.247 1103.56 116.724 1123.31C114.642 1126.06 113.567 1128.61 113.5 1130.97 113.5 1132.91 114.306 1134.66 115.918 1136.2L129.62 1143.46 147.755 1151.92 171.532 1157.16C176.368 1157.96 179.995 1159.17 182.413 1160.78 182.883 1161.59 183.152 1162.39 183.219 1163.2 183.202 1163.81 183.034 1164.41 182.715 1165.01 182.396 1165.62 182.027 1166.22 181.607 1166.83 177.107 1171.19 169.584 1175.76 159.039 1180.53 152.658 1183.35 147.688 1186.97 144.128 1191.41L133.247 1208.73C131.24 1210.56 129.309 1211.94 127.454 1212.86 125.598 1213.79 123.768 1214.16 121.963 1213.97 117.866 1212.7 114.776 1210.41 112.694 1207.12 109 1201.55 105.91 1198.19 103.425 1197.05L81.2599 1185.77C77.1627 1183.35 71.2521 1180.53 63.5279 1177.3L39.3479 1173.27 31.2879 1170.05C30.4819 1168.84 30.0789 1167.63 30.0789 1166.42 30.0621 1166.03 30.0957 1165.61 30.1797 1165.17 30.2636 1164.72 30.4987 1164.2 30.8849 1163.6 31.4726 1163.19 33.7227 1161.8 37.6352 1159.42 41.5476 1157.05 47.2232 1153.74 54.6619 1149.5L70.7819 1136.61 90.9319 1120.89C92.3508 1119.3 93.946 1116.95 95.7175 1113.84 97.489 1110.73 99.3865 1106.77 101.41 1101.95 110.276 1084.16 114.709 1070.59 114.709 1061.26 114.701 1060.23 114.617 1059.26 114.457 1058.33 114.298 1057.41 114.113 1056.64 113.903 1056.02 112.761 1050.78 105.776 1035.87 92.9469 1011.29L81.6629 984.293 71.5879 962.534 59.9009 939.969C58.079 936.528 57.189 933.136 57.231 929.795 57.273 926.454 58.2973 923.264 60.3039 920.225 61.6892 918.806 63.7546 917.01 66.5 914.836 69.2455 912.661 72.8221 910.16 77.2299 907.331L95.7679 895.243 115.112 879.931 134.053 868.648 148.158 853.739C151.206 850.499 153.976 848.316 156.47 847.191 158.963 846.067 161.029 846.1 162.666 847.292 166.897 851.347 170.625 854.721 173.849 857.416 177.073 860.111 179.793 861.974 182.01 863.007L206.19 869.051 225.534 879.125 271.071 898.466C272.296 898.869 273.571 899.171 274.896 899.373 276.222 899.574 277.497 899.675 278.722 899.675 282.346 899.608 285.568 898.936 288.387 897.66L307.315 881.542C313.154 877.731 317.785 874.575 321.208 872.073 324.631 869.572 326.846 867.624 327.853 866.231L341.145 849.307C342.782 847.678 344.444 846.402 346.132 845.478 347.819 844.554 349.381 844.084 350.816 844.067ZM1594 840.44C1595.68 840.441 1597.16 840.845 1598.44 841.652 1598.77 842.39 1598.91 843.331 1598.84 844.472 1598.86 845.261 1598.82 846 1598.74 846.688 1598.65 847.377 1598.42 848.115 1598.03 848.905 1597.01 850.726 1595.33 852.926 1593 855.503 1590.66 858.08 1587.77 860.985 1584.33 864.216 1581.89 866.626 1579.92 869.262 1578.44 872.124 1576.95 874.987 1576.09 878.126 1575.87 881.543L1576.27 912.57 1571.84 939.97 1573.85 958.103C1574.66 965.423 1573.85 974.556 1571.44 985.503 1571.45 986.3 1571.52 989.843 1571.64 996.13 1571.75 1002.42 1571.82 1011.5 1571.84 1023.38 1572.01 1024.19 1571.96 1027.21 1571.69 1032.45 1571.41 1037.68 1571.06 1045.14 1570.63 1054.81L1569.82 1076.97 1567.01 1103.97C1565.8 1120.09 1567.01 1135 1570.63 1148.7 1574.26 1155.55 1580.3 1160.78 1588.76 1164.41 1592.86 1165.95 1600.38 1167.3 1611.33 1168.44L1618.18 1169.65 1619.8 1170.05C1619.98 1170.45 1620.01 1170.86 1619.9 1171.26 1619.78 1171.66 1619.61 1172.07 1619.39 1172.47L1600.05 1187.38 1582.72 1199.87C1580.52 1201.88 1578.37 1204.3 1576.27 1207.12 1574.17 1209.94 1572.02 1213.17 1569.82 1216.79 1568.8 1218.81 1567.83 1220.52 1566.9 1221.93 1565.98 1223.34 1565.21 1224.45 1564.59 1225.25 1564.19 1225.27 1563.78 1225.34 1563.38 1225.46 1562.98 1225.57 1562.58 1225.64 1562.17 1225.66 1560.63 1225.66 1559.29 1225.25 1558.15 1224.45L1558.15 1224.45 1544.46 1209.54C1538.02 1202.76 1532.79 1198.19 1528.76 1195.84L1506.2 1188.18C1502.77 1186.8 1500.36 1185.24 1499 1183.5 1497.63 1181.76 1497.34 1179.7 1498.14 1177.3L1512.24 1160.78C1513.64 1158.58 1514.78 1155.94 1515.67 1152.88 1516.56 1149.81 1517.3 1146.27 1517.89 1142.25L1522.32 1102.76 1524.73 1051.99C1524.35 1049.78 1524.11 1047.65 1524.03 1045.59 1523.95 1043.54 1523.91 1041.5 1523.93 1039.5 1523.93 1036.49 1524.03 1033.64 1524.23 1030.93 1524.43 1028.23 1524.73 1025.58 1525.14 1022.98 1524.8 1018.07 1524.26 1010.55 1523.53 1000.41 1523.06 992.756 1522.39 981.473 1521.51 966.564 1520.37 956.021 1518.22 940.44 1515.07 919.823 1513.63 910.144 1512.27 902.505 1510.99 896.905 1509.7 891.306 1508.64 887.797 1507.81 886.378L1491.29 867.44C1490.49 865.644 1489.97 863.998 1489.73 862.504 1489.48 861.01 1489.47 859.566 1489.68 858.172 1490.47 856.544 1491.6 855.369 1493.05 854.647 1494.5 853.925 1496.33 853.757 1498.54 854.143 1504.18 856.561 1510.63 864.216 1517.89 877.111 1519.88 880.746 1522.03 883.146 1524.33 884.313 1526.63 885.48 1529.18 885.363 1531.98 883.961L1550.5 866.634 1566.6 854.546C1570.24 851.725 1574.05 849.207 1578.03 846.991 1582.02 844.774 1586.14 842.86 1590.38 841.249 1590.98 840.861 1591.59 840.626 1592.19 840.541 1592.79 840.457 1593.4 840.423 1594 840.44ZM3418.23 837.619C3419.24 837.611 3420.25 837.628 3421.25 837.67 3422.26 837.712 3423.27 837.831 3424.27 838.025 3436.36 841.249 3446.02 849.308 3453.27 862.202 3454.55 865.896 3455.22 869.388 3455.29 872.678 3455.22 880.67 3452.13 888.46 3446.02 896.049 3444.42 897.443 3442.89 898.584 3441.44 899.474 3439.99 900.364 3438.56 901.103 3437.16 901.69 3435.97 901.69 3435.03 901.388 3434.34 900.784 3433.66 900.179 3433.12 899.273 3432.73 898.064L3435.95 880.334C3436.02 874.29 3433.87 869.455 3429.51 865.828 3420.18 860.657 3409.04 858.105 3396.08 858.172 3386.48 858.978 3379.9 863.008 3376.34 870.261 3375.13 875.566 3375.13 885.505 3376.34 900.079 3376.53 903.092 3376.46 905.728 3376.14 907.986 3375.82 910.245 3375.35 912.175 3374.73 913.779 3374.35 913.972 3374.01 914.089 3373.72 914.131 3373.44 914.173 3373.1 914.19 3372.72 914.182 3370.7 914.182 3368.69 912.973 3366.68 910.555 3365.05 907.34 3363.77 903.999 3362.85 900.532 3361.93 897.065 3361.46 893.422 3361.44 889.602 3361.46 886.379 3361.83 883.054 3362.55 879.629 3363.26 876.204 3364.23 872.678 3365.45 869.052L3365.47 869.052C3369.83 860.523 3376.41 853.404 3385.2 847.696 3396.82 840.912 3407.83 837.553 3418.23 837.619ZM911.233 837.619C912.24 837.611 913.246 837.628 914.253 837.67 915.26 837.712 916.267 837.831 917.274 838.025 929.358 841.249 939.025 849.308 946.275 862.202 947.55 865.896 948.221 869.388 948.289 872.678 948.221 880.67 945.133 888.46 939.025 896.049 937.422 897.443 935.895 898.584 934.443 899.474 932.991 900.364 931.565 901.103 930.163 901.69 928.972 901.69 928.032 901.388 927.344 900.784 926.656 900.179 926.119 899.273 925.733 898.064L928.955 880.334C929.022 874.29 926.874 869.455 922.51 865.828 913.179 860.657 902.036 858.105 889.079 858.172 879.48 858.978 872.901 863.008 869.343 870.261 868.135 875.566 868.135 885.505 869.343 900.079 869.528 903.092 869.46 905.728 869.141 907.986 868.823 910.245 868.353 912.175 867.732 913.779 867.346 913.972 867.01 914.089 866.725 914.131 866.44 914.173 866.104 914.19 865.718 914.182 863.704 914.182 861.69 912.973 859.676 910.555 858.048 907.34 856.773 903.999 855.85 900.532 854.927 897.065 854.457 893.422 854.44 889.602 854.457 886.379 854.826 883.054 855.545 879.629 856.265 876.204 857.233 872.678 858.449 869.052L858.468 869.052C862.831 860.523 869.41 853.404 878.204 847.696 889.818 840.912 900.827 837.553 911.233 837.619Z" stroke="#000000" stroke-width="3" stroke-linejoin="round" stroke-miterlimit="10" fill-rule="evenodd"/><text fill="#000000" fill-opacity="0" font-family="Arial,Arial_MSFontService,sans-serif" font-size="491.209" x="30.0747" y="1267.42">Medieval  Manuscripts</text></g></svg>